<svg width="42" height="49" viewBox="0 0 42 49" fill="none" xmlns="http://www.w3.org/2000/svg">
<circle cx="28" cy="39" r="10" fill="#00D9C0" fill-opacity="0.6"/>
<path d="M34.3912 18.2635L36.871 13.9681C38.5546 11.0524 38.5546 7.57123 36.871 4.65623C35.1878 1.7406 32.1728 0 28.8067 0H13.1823C9.81547 0 6.8005 1.74028 5.1179 4.65559C3.43466 7.57091 3.43466 11.0524 5.1179 13.9681L7.59774 18.2632C8.09121 19.1187 8.0643 20.1701 7.52789 21.0077C5.88342 23.576 5.0144 26.5515 5.0144 29.6133C5.0144 33.8264 6.61978 37.049 9.78631 39.1917C12.501 41.0288 16.3767 42 20.9942 42C25.8705 42 29.8965 40.9227 32.6359 38.8841C32.9124 38.6784 32.9698 38.2874 32.764 38.0112C32.5583 37.7347 32.1674 37.6773 31.8909 37.8831C29.3684 39.7602 25.6004 40.7522 20.9942 40.7522C16.627 40.7522 12.9932 39.8553 10.4858 38.1583C7.6833 36.2617 6.26217 33.3867 6.26217 29.6133C6.26217 26.7906 7.06326 24.0473 8.57859 21.6806C9.36783 20.4492 9.40596 18.9008 8.67857 17.6393L6.51051 13.8844L9.75267 12.0125L11.0828 14.3164C11.997 15.9006 13.9084 16.5623 15.6275 15.8891C17.337 15.22 19.1424 14.8807 20.9942 14.8807C22.8463 14.8807 24.6519 15.22 26.3614 15.8891C26.8132 16.0659 27.2782 16.1509 27.7351 16.1509C29.0162 16.1509 30.232 15.4844 30.9062 14.3164L32.2363 12.0125L35.4784 13.8844L33.3107 17.6393C32.5827 18.8992 32.6205 20.4476 33.4094 21.6803C34.9257 24.047 35.7268 26.7899 35.7268 29.6133C35.7268 32.2931 35.0045 34.5355 33.5805 36.278C33.3626 36.5449 33.402 36.9381 33.6689 37.156C33.9359 37.3742 34.329 37.3345 34.5469 37.0679C36.1578 35.0962 36.9749 32.5882 36.9749 29.6133C36.9749 26.5509 36.1052 23.575 34.4604 21.0074C33.924 20.1698 33.8974 19.1181 34.3912 18.2635ZM29.8253 13.6928C29.2216 14.7387 27.9559 15.1735 26.8165 14.7272C24.9615 14.0011 23.0023 13.6329 20.9942 13.6329C18.986 13.6329 17.0275 14.0011 15.1728 14.7272C14.0327 15.1735 12.7673 14.7387 12.1636 13.6928L10.5214 10.8483C9.96608 9.88637 9.96608 8.73793 10.5214 7.77567C10.8915 7.13416 11.4724 6.64966 12.1569 6.41125C12.4824 6.29782 12.6545 5.94214 12.5411 5.61658C12.4277 5.29102 12.072 5.11926 11.7464 5.2327C10.779 5.56947 9.95999 6.25136 9.44056 7.1521C8.76541 8.32169 8.67537 9.68674 9.16755 10.9092L5.90745 12.7917C4.74908 10.3875 4.84553 7.6225 6.19841 5.27948C7.65574 2.7551 10.2666 1.24777 13.1823 1.24777H28.8067C31.722 1.24777 34.3326 2.75542 35.7905 5.28044C37.1434 7.62314 37.2399 10.3878 36.0815 12.7917L32.8214 10.9095C33.3126 9.6893 33.2235 8.32617 32.5516 7.15819C31.7832 5.82166 30.3252 4.99173 28.7467 4.99173H14.4301C14.0856 4.99173 13.8062 5.27083 13.8062 5.61562C13.8062 5.96008 14.0856 6.2395 14.4301 6.2395H28.7467C29.8798 6.2395 30.9231 6.82974 31.4698 7.78015C32.0229 8.74113 32.0219 9.88829 31.4676 10.8483L29.8253 13.6928Z" fill="black"/>
<path d="M19.4325 28.3132L20.7434 26.6729C20.8001 26.5999 20.8068 26.5255 20.8068 26.4759C20.8068 26.2154 20.4781 25.9609 20.2326 25.9609C20.1128 25.9609 20.0231 26.008 19.9506 26.1096L18.3949 28.2267V26.2766C18.3949 26.0587 18.1437 25.9609 17.8947 25.9609C17.664 25.9609 17.3945 26.0436 17.3945 26.2766V31.0706C17.3945 31.2926 17.6538 31.3939 17.8947 31.3939C18.1434 31.3939 18.3949 31.283 18.3949 31.0706V29.6325L18.7711 29.1589L20.1413 31.2363C20.2179 31.3615 20.3422 31.4308 20.4909 31.4308C20.7863 31.4308 21.0872 31.1783 21.0872 30.9306C21.0872 30.8617 21.0683 30.8005 21.0321 30.7495L19.4325 28.3132Z" fill="black"/>
<path d="M23.6024 26.8431C24.2237 26.8431 24.3275 27.2231 24.3487 27.5532C24.3554 27.7643 24.5284 27.8759 24.8489 27.8759C25.1578 27.8759 25.3491 27.7957 25.3491 27.3978C25.3491 26.538 24.6326 25.9609 23.5655 25.9609C22.0717 25.9609 21.8486 27.0318 21.8486 27.6705V29.7283C21.8486 30.8306 22.469 31.4378 23.595 31.4378C24.7261 31.4378 25.3491 30.8306 25.3491 29.7283V28.8506C25.3491 28.6862 25.2382 28.5199 25.0261 28.5199H23.7722C23.5671 28.5199 23.4563 28.7244 23.4563 28.9169C23.4563 29.114 23.5649 29.3136 23.7722 29.3136H24.3487V29.7283C24.3487 30.2695 24.0882 30.5556 23.595 30.5556C23.0999 30.5556 22.8487 30.2772 22.8487 29.7283V27.6705C22.8487 27.1216 23.1025 26.8431 23.6024 26.8431Z" fill="black"/>
<path d="M20.9944 20.9336C16.8742 20.9336 13.5225 24.2853 13.5225 28.4055C13.5225 32.5253 16.8742 35.8774 20.9944 35.8774C25.1142 35.8774 28.4659 32.5253 28.4659 28.4055C28.4659 24.2853 25.1142 20.9336 20.9944 20.9336ZM20.9944 34.6293C17.5625 34.6293 14.7702 31.8373 14.7702 28.4055C14.7702 24.9736 17.5625 22.1814 20.9944 22.1814C24.4259 22.1814 27.2182 24.9736 27.2182 28.4055C27.2182 31.8373 24.4262 34.6293 20.9944 34.6293Z" fill="black"/>
</svg>
