<svg width="40" height="40" viewBox="0 0 40 40" fill="none" xmlns="http://www.w3.org/2000/svg">
<g clip-path="url(#clip0)">
<circle cx="20" cy="27" r="10" fill="#00D9C0" fill-opacity="0.6"/>
<path d="M40 2.54281V0.587109C40 0.262891 39.7372 0 39.4129 0H0.587109C0.262812 0 0 0.262891 0 0.587109V2.54281C0 3.6468 0.835469 4.55891 1.90734 4.68109V25.476C1.90734 25.8002 2.17023 26.0631 2.49445 26.0631C2.81867 26.0631 3.08156 25.8002 3.08156 25.476V4.69539H36.9186V32.8068H35.5938V27.8242C35.5938 27.5 35.3309 27.2371 35.0066 27.2371C34.6823 27.2371 34.4195 27.5 34.4195 27.8242V32.8068H30.3737L30.888 29.6305H31.1248C31.6363 29.6305 32.0525 29.2145 32.0525 28.7029V27.2309C32.0525 26.7195 31.6363 26.3033 31.1248 26.3033H27.5736V24.9881C27.9876 25.141 28.5066 25.2761 29.0498 25.2761C29.3718 25.2761 29.7023 25.2286 30.0241 25.1093C31.5643 24.5381 32.1798 22.5909 32.2052 22.5083C32.2834 22.2545 32.1815 21.9798 31.9566 21.8385C31.8835 21.7925 30.1466 20.7179 28.6065 21.2889C27.8638 21.5643 27.3367 22.1596 26.9865 22.7116C26.6363 22.1595 26.1092 21.5643 25.3665 21.2889C23.8266 20.7179 22.0895 21.7925 22.0163 21.8385C21.7915 21.9799 21.6896 22.2545 21.7677 22.5084C21.7932 22.5909 22.4087 24.5381 23.9488 25.1093C24.2707 25.2287 24.601 25.2761 24.9232 25.2761C25.4663 25.276 25.9854 25.1409 26.3994 24.988V26.3033H22.8481C22.3366 26.3033 21.9205 26.7194 21.9205 27.2309V28.7029C21.9205 29.2144 22.3366 29.6305 22.8481 29.6305H23.0849L23.5993 32.8068H5.58047V19.6059H34.4195V25.476C34.4195 25.8002 34.6823 26.0631 35.0066 26.0631C35.3309 26.0631 35.5937 25.8002 35.5937 25.476V19.0189V6.60609C35.5937 6.28187 35.3309 6.01898 35.0066 6.01898H4.99344C4.66922 6.01898 4.40633 6.2818 4.40633 6.60609V19.0188V32.8069H3.08148V27.8243C3.08148 27.5001 2.81867 27.2372 2.49437 27.2372C2.17008 27.2372 1.90727 27.5001 1.90727 27.8243V32.8213C0.835469 32.9434 0 33.8555 0 34.9595V36.9152C0 37.2394 0.262812 37.5023 0.587109 37.5023H1.90734V39.4129C1.90734 39.7371 2.17023 40 2.49445 40H37.5056C37.8299 40 38.0927 39.7371 38.0927 39.4129V37.5023H39.413C39.7373 37.5023 40.0001 37.2394 40.0001 36.9152V34.9595C40.0001 33.8555 39.1646 32.9434 38.0927 32.8212V4.68102C39.1645 4.55883 40 3.6468 40 2.54281ZM29.0147 22.3899C29.6203 22.1652 30.3893 22.3871 30.8994 22.6104C30.6777 23.0769 30.2535 23.772 29.6159 24.0084C29.0104 24.2329 28.2413 24.0112 27.7313 23.7879C27.9529 23.3215 28.377 22.6264 29.0147 22.3899ZM24.357 24.0084C23.751 23.7837 23.3125 23.1132 23.0719 22.6113C23.5823 22.3875 24.3521 22.1651 24.9583 22.3899C25.5643 22.6147 26.0028 23.2852 26.2434 23.787C25.7329 24.0109 24.9631 24.2331 24.357 24.0084ZM5.58047 7.19312H6.90531V10.8913C6.90531 11.2155 7.16813 11.4784 7.49242 11.4784C7.81672 11.4784 8.07953 11.2155 8.07953 10.8913V7.19312H31.9205V15.934H23.4746V15.03C23.4746 14.3259 22.9017 13.753 22.1976 13.753H17.8024C17.0982 13.753 16.5253 14.3259 16.5253 15.03V15.934H8.07953V13.2396C8.07953 12.9154 7.81664 12.6525 7.49242 12.6525C7.1682 12.6525 6.90531 12.9154 6.90531 13.2396V16.5211C6.90531 16.8453 7.16813 17.1082 7.49242 17.1082H32.5076C32.8319 17.1082 33.0947 16.8454 33.0947 16.5211V7.19312H34.4195V18.4317H5.58047V7.19312ZM22.3005 15.03V15.934H17.6995V15.03C17.6995 14.9733 17.7457 14.9271 17.8025 14.9271H22.1977C22.2543 14.927 22.3005 14.9733 22.3005 15.03ZM23.0946 27.4776H30.8782V28.4564H23.0946V27.4776ZM24.2744 29.6306H29.6986L29.1842 32.8069H24.7887L24.2744 29.6306ZM36.9185 38.8259H3.08148V37.5023H36.9185V38.8259ZM38.8259 34.9595V36.3281H1.17414V34.9595C1.17414 34.42 1.61305 33.981 2.15258 33.981H24.2867C24.2873 33.981 24.2878 33.9811 24.2884 33.9811C24.2887 33.9811 24.2891 33.981 24.2894 33.981H29.6836C29.6839 33.981 29.6842 33.9811 29.6845 33.9811C29.6851 33.9811 29.6856 33.981 29.6863 33.981H37.8474C38.3869 33.981 38.8259 34.4199 38.8259 34.9595ZM37.8473 3.52125H2.15266C1.61313 3.52125 1.17422 3.08234 1.17422 2.54281V1.17414H38.8259V2.54273C38.8259 3.08227 38.3869 3.52125 37.8473 3.52125Z" fill="black"/>
</g>
<defs>
<clipPath id="clip0">
<rect width="40" height="40" fill="white"/>
</clipPath>
</defs>
</svg>
