<svg width="41" height="45" viewBox="0 0 41 45" fill="none" xmlns="http://www.w3.org/2000/svg">
<circle cx="19.5" cy="34.5" r="10.5" fill="#00D9C0" fill-opacity="0.6"/>
<g clip-path="url(#clip0)">
<path d="M31.3906 34.076L31.3912 22.5556C31.3912 22.2477 31.2713 21.9584 31.0533 21.7406C30.8355 21.5226 30.5456 21.4027 30.2372 21.4027H28.0511C27.7426 21.4027 27.4539 21.5226 27.2354 21.7406C27.066 21.9111 26.958 22.1246 26.9178 22.3557V19.3668C26.9178 19.3221 26.9155 19.278 26.9101 19.2351C26.945 18.8619 26.7967 18.4914 26.5085 18.2475L22.3257 14.7157C24.8066 13.2086 26.3683 10.4841 26.3683 7.54776C26.3689 4.36228 24.5991 1.49318 21.7486 0.0598226C21.5759 -0.0264781 21.3705 -0.0188352 21.2054 0.0832289C21.0409 0.184815 20.9402 0.364423 20.9402 0.558042L20.9398 6.98967H15.0374V0.558201C15.0374 0.364423 14.9369 0.184975 14.7723 0.0833881C14.6072 -0.0188352 14.4018 -0.0275927 14.229 0.0599818C11.3798 1.49318 9.60938 4.36228 9.60938 7.54776C9.60938 10.6624 11.3647 13.5395 14.1115 14.9762L14.111 21.4027H11.8006C11.1644 21.4038 10.6471 21.9208 10.6471 22.5556V24.5428C10.6471 24.7612 10.7119 24.9641 10.8179 25.1389C10.7119 25.3133 10.6471 25.516 10.6471 25.7344V27.7213C10.6471 27.9397 10.7114 28.1419 10.8173 28.3157C10.7085 28.4943 10.6471 28.6986 10.6475 28.9123L10.6471 30.8985C10.6471 31.1176 10.7119 31.3198 10.8179 31.4946C10.7119 31.669 10.6471 31.8717 10.6466 32.0908V34.0774C10.6466 34.7123 11.1639 35.2299 11.8002 35.231H11.8006H14.111V37.1223C14.111 39.2606 15.8504 41 17.988 41H17.9891C20.1268 41 21.8665 39.2606 21.8665 37.1223V34.7718C21.8969 34.8127 21.9274 34.8541 21.9645 34.8917C22.183 35.1095 22.4723 35.2294 22.7807 35.2294H25.764C26.3683 35.2294 26.8593 34.7615 26.9084 34.1698C26.9569 34.761 27.4485 35.2294 28.0522 35.2294H30.2351C30.2362 35.2294 30.2384 35.2294 30.2394 35.2294C30.5467 35.2294 30.8366 35.1091 31.0545 34.8906C31.2713 34.6737 31.3906 34.3838 31.3906 34.076ZM14.9068 14.1243C12.3664 12.9323 10.7252 10.3505 10.7252 7.54728C10.7252 5.10125 11.9295 2.87033 13.9214 1.52916V7.54776C13.9214 7.85602 14.1715 8.10569 14.4793 8.10569H21.4979C21.8052 8.10569 22.0558 7.85586 22.0558 7.54776V1.52916C24.0487 2.87033 25.2527 5.10125 25.2523 7.54728C25.2523 10.35 23.6109 12.9323 21.0707 14.1252C20.9624 14.1762 20.8751 14.2593 20.8197 14.3601C20.8113 14.362 20.8038 14.3668 20.7955 14.369C20.7532 14.3802 20.7129 14.3988 20.6719 14.4142C20.6333 14.4286 20.5931 14.4399 20.5563 14.4595C20.4798 14.4985 20.4073 14.5453 20.3414 14.6012L16.0229 18.2481C15.5367 18.6587 15.4761 19.388 15.8861 19.8741L17.1671 21.3917C17.1701 21.3954 17.1733 21.3993 17.176 21.4025H15.2264L15.2269 14.6303C15.2275 14.4133 15.1028 14.2163 14.9068 14.1243ZM11.8002 30.9362C11.7884 30.9362 11.7772 30.9391 11.7661 30.9396L11.7631 30.8982L11.8013 28.8744H14.6892L17.4908 28.912L17.4535 30.9357L11.8002 30.9362ZM11.7631 27.7208L11.8013 25.6959H14.6691L17.492 25.7335L17.4541 27.7577L11.8019 27.7584C11.7901 27.7584 11.7785 27.7612 11.7667 27.7617L11.7631 27.7208ZM11.8013 22.5176H14.6691L17.492 22.5552L17.4541 24.5794H14.6696L11.7637 24.5418L11.8013 22.5176ZM11.8013 34.6726L11.7631 34.0771L11.8013 32.0527H14.6898L17.492 32.0903L17.4541 34.1147H14.6696C14.6691 34.1147 14.6691 34.1147 14.6685 34.1147H11.8013V34.6726ZM17.988 39.8835C16.4653 39.8835 15.227 38.6444 15.227 37.1218L15.2275 35.2304H17.4533C18.0901 35.2304 18.6073 34.7127 18.6073 34.077V32.0901C18.6073 31.992 18.5912 31.8984 18.5682 31.808C18.5616 31.7819 18.5525 31.7567 18.5444 31.7312C18.5221 31.6647 18.4945 31.6019 18.4612 31.5411C18.4534 31.5263 18.4501 31.5096 18.4412 31.4948C18.4485 31.4828 18.4512 31.4691 18.4577 31.4567C18.494 31.3913 18.5237 31.3238 18.5466 31.2518C18.5546 31.2284 18.5616 31.2055 18.5678 31.1816C18.5912 31.0895 18.6068 30.9958 18.6068 30.8988L18.6063 28.9126C18.6063 28.8152 18.5902 28.7214 18.5673 28.6304C18.5606 28.6048 18.552 28.5803 18.5439 28.5542C18.5216 28.4871 18.494 28.4235 18.46 28.3618C18.4523 28.3483 18.4491 28.3314 18.4412 28.3177C18.4496 28.3047 18.4523 28.2889 18.4595 28.2747C18.4947 28.211 18.5238 28.1445 18.5461 28.0746C18.5546 28.0502 18.5622 28.0256 18.569 28.0006C18.5913 27.9101 18.6068 27.8174 18.6063 27.7221L18.6068 25.7349C18.6068 25.6368 18.5907 25.5437 18.5678 25.4528C18.5611 25.4267 18.552 25.4015 18.5439 25.376C18.5216 25.3084 18.4936 25.2447 18.46 25.183C18.4523 25.1695 18.4491 25.1526 18.4405 25.1385C18.449 25.1254 18.4523 25.1085 18.46 25.095C18.4934 25.0334 18.5216 24.9697 18.5432 24.902C18.5514 24.8764 18.5604 24.852 18.5671 24.8253C18.5901 24.7343 18.6061 24.641 18.6061 24.5434L18.6066 22.5566C18.6066 22.4794 18.5982 22.4036 18.5837 22.3305C18.5788 22.3061 18.5692 22.2831 18.5625 22.2587C18.5496 22.2112 18.538 22.1638 18.5192 22.1192C18.5074 22.0913 18.4923 22.0663 18.4789 22.0396C18.4593 22.0015 18.441 21.9622 18.4176 21.9262C18.4003 21.9001 18.3799 21.8765 18.3601 21.8522C18.3401 21.8259 18.3222 21.7982 18.3 21.7737C18.331 21.766 18.3597 21.7512 18.3901 21.7415C18.3991 21.7388 18.4081 21.735 18.4165 21.7321C18.4762 21.7121 18.5348 21.6914 18.5907 21.6619C18.662 21.6254 18.7302 21.5825 18.7931 21.5291L20.7498 19.877V37.122C20.7498 38.6437 19.5113 39.8835 17.988 39.8835ZM25.8016 34.0754C25.8016 34.0973 25.7852 34.1136 25.764 34.1136L22.743 34.0754V19.4858C22.743 19.3218 22.6706 19.1656 22.5452 19.0597L21.6679 18.3197C21.6679 18.3193 21.6244 18.283 21.6233 18.2825C21.5711 18.2389 21.5138 18.207 21.4534 18.1852C21.4262 18.1753 21.3963 18.176 21.3684 18.1707C21.3346 18.1648 21.3009 18.1537 21.2662 18.1537H21.2655C21.2181 18.1537 21.1713 18.1659 21.1249 18.1782C21.1092 18.1825 21.0926 18.1809 21.077 18.1863C21.0159 18.2088 20.9579 18.2411 20.9062 18.2852L18.021 20.6722L16.7438 19.1014L21.0982 15.4489C21.1998 15.4807 21.2702 15.4914 21.3729 15.4639C21.387 15.4616 21.4558 15.4578 21.4703 15.454L25.7986 19.1359C25.7833 19.2136 25.7844 19.2907 25.8019 19.3676V34.0754H25.8016ZM30.2747 34.0765C30.2747 34.0938 30.2561 34.1136 30.2392 34.1136L28.0148 34.076L28.0519 22.5181L30.275 22.5552L30.2747 34.0765Z" fill="black"/>
</g>
<defs>
<clipPath id="clip0">
<rect width="41" height="41" fill="white"/>
</clipPath>
</defs>
</svg>
