<svg width="39" height="39" viewBox="0 0 39 39" fill="none" xmlns="http://www.w3.org/2000/svg">
<circle cx="12.5" cy="29.5" r="9.5" fill="#00D9C0" fill-opacity="0.6"/>
<path d="M21.4374 33.1902H5.39137C2.41867 33.1902 0 30.7723 0 27.7996C0 24.8688 2.35172 22.4761 5.26751 22.4099C6.30528 18.8087 9.58597 16.3223 13.3604 16.3223C16.4888 16.3223 19.3058 18.0178 20.783 20.7671C21.0165 20.7411 21.2299 20.7286 21.4366 20.7286C24.8721 20.7286 27.6682 23.523 27.6682 26.9577C27.6691 30.3941 24.8738 33.1902 21.4374 33.1902ZM5.39137 23.246C2.88064 23.246 0.83691 25.2889 0.83691 27.7996C0.83691 30.3104 2.87981 32.3524 5.39137 32.3524H21.4374C24.4118 32.3524 26.8322 29.9321 26.8322 26.9577C26.8322 23.9842 24.4118 21.5655 21.4374 21.5655C21.1872 21.5655 20.9236 21.5873 20.6081 21.635C20.4281 21.6609 20.2515 21.5697 20.1712 21.4065C18.879 18.7878 16.2687 17.16 13.3604 17.16C9.8588 17.16 6.82919 19.536 5.99228 22.938C5.94541 23.1289 5.77552 23.2469 5.57549 23.2561L5.39137 23.246Z" fill="black"/>
<path d="M21.4375 33.1912C21.2065 33.1912 21.0191 33.0038 21.0191 32.7728C21.0191 32.5418 21.2065 32.3543 21.4375 32.3543C24.4119 32.3543 26.8323 29.934 26.8323 26.9596C26.8323 23.9861 24.4119 21.5674 21.4375 21.5674C19.8784 21.5674 18.397 22.2411 17.3727 23.4153C17.2203 23.5894 16.9567 23.6069 16.7818 23.4554C16.6077 23.3031 16.5901 23.0387 16.7416 22.8646C17.925 21.508 19.6365 20.7305 21.4375 20.7305C24.873 20.7305 27.6692 23.5249 27.6692 26.9596C27.6692 30.3951 24.8739 33.1912 21.4375 33.1912Z" fill="black"/>
<path d="M30.1647 24.9481C30.0576 24.9481 29.9505 24.9071 29.8685 24.8251C29.7053 24.6611 29.7061 24.3958 29.8693 24.2326C31.1171 22.9906 31.8042 21.3369 31.8042 19.576C31.8042 15.9522 28.8566 13.0038 25.232 13.0038C23.3255 13.0038 21.5144 13.8315 20.2633 15.2743C20.1109 15.4484 19.8473 15.4676 19.6724 15.3161C19.4983 15.1647 19.4791 14.9002 19.6306 14.7253C21.0407 13.0992 23.0828 12.166 25.232 12.166C29.3169 12.166 32.6412 15.4894 32.6412 19.5752C32.6412 21.5603 31.867 23.425 30.461 24.8251C30.3782 24.908 30.271 24.9481 30.1647 24.9481Z" fill="black"/>
<path d="M25.2319 9.78838C25.0009 9.78838 24.8135 9.60091 24.8135 9.36992V6.229C24.8135 5.99801 25.0009 5.81055 25.2319 5.81055C25.4629 5.81055 25.6504 5.99801 25.6504 6.229V9.36992C25.6504 9.60091 25.4629 9.78838 25.2319 9.78838Z" fill="black"/>
<path d="M38.5809 19.9951H35.4399C35.209 19.9951 35.0215 19.8076 35.0215 19.5767C35.0215 19.3457 35.209 19.1582 35.4399 19.1582H38.5809C38.8118 19.1582 38.9993 19.3457 38.9993 19.5767C38.9993 19.8076 38.8118 19.9951 38.5809 19.9951Z" fill="black"/>
<path d="M32.4499 12.7773C32.3428 12.7773 32.2357 12.7363 32.1536 12.6551C31.9905 12.4919 31.9905 12.2266 32.1536 12.0634L34.3748 9.8431C34.538 9.6799 34.8033 9.6799 34.9665 9.8431C35.1297 10.0063 35.1297 10.2716 34.9665 10.4348L32.7453 12.6551C32.6642 12.7363 32.557 12.7773 32.4499 12.7773Z" fill="black"/>
<path d="M34.6702 29.4327C34.5631 29.4327 34.456 29.3917 34.374 29.3105L32.1536 27.091C31.9905 26.9278 31.9905 26.6625 32.1536 26.4994C32.3168 26.3362 32.5821 26.3362 32.7453 26.4994L34.9657 28.7188C35.1289 28.882 35.1289 29.1473 34.9657 29.3105C34.8845 29.3925 34.7774 29.4327 34.6702 29.4327Z" fill="black"/>
<path d="M18.0131 12.7773C17.906 12.7773 17.7989 12.7363 17.7169 12.6551L15.4974 10.4348C15.3342 10.2716 15.3342 10.0063 15.4974 9.8431C15.6606 9.6799 15.9259 9.6799 16.0891 9.8431L18.3086 12.0634C18.4718 12.2266 18.4718 12.4919 18.3086 12.6551C18.2274 12.7363 18.1203 12.7773 18.0131 12.7773Z" fill="black"/>
</svg>
