<svg width="37" height="37" viewBox="0 0 37 37" fill="none" xmlns="http://www.w3.org/2000/svg">
<g clip-path="url(#clip0)">
<path d="M34.4021 1.64844H30.1836C29.8841 1.64844 29.6416 1.89092 29.6416 2.19043C29.6416 2.48966 29.8841 2.73242 30.1836 2.73242H34.4021C34.5018 2.73242 34.5828 2.81344 34.5828 2.91309V24.149C34.5828 24.4483 34.8255 24.691 35.1248 24.691C35.4243 24.691 35.6668 24.4483 35.6668 24.149V2.91309C35.6668 2.21555 35.0996 1.64844 34.4021 1.64844Z" fill="black"/>
<path d="M12.1237 12.5611C11.912 12.3494 11.5687 12.3494 11.357 12.5611C11.1453 12.7728 11.1453 13.1158 11.357 13.3275L17.0909 19.0614C17.1967 19.167 17.3353 19.22 17.4742 19.22C17.6128 19.22 17.7514 19.167 17.8573 19.0614C18.069 18.8494 18.069 18.5064 17.8573 18.2947L12.1237 12.5611Z" fill="black"/>
<path d="M32.0517 13.0996H32.046C31.7465 13.0996 31.5068 13.3421 31.5068 13.6416C31.5068 13.9411 31.7521 14.1836 32.0517 14.1836C32.3512 14.1836 32.5936 13.9411 32.5936 13.6416C32.5936 13.3421 32.3512 13.0996 32.0517 13.0996Z" fill="black"/>
<path d="M32.4983 14.582C32.1987 14.586 31.9622 14.8316 31.9659 15.1308C31.9695 15.4278 32.2143 15.666 32.5104 15.666H32.5174C32.8167 15.6621 33.0563 15.4165 33.0527 15.1172C33.049 14.8203 32.8071 14.582 32.5107 14.582C32.5084 14.582 32.5062 14.582 32.5039 14.582H32.4983Z" fill="black"/>
<path d="M29.1339 16.252C28.8344 16.252 28.5947 16.4944 28.5947 16.7939C28.5947 17.0932 28.84 17.3359 29.1396 17.3359C29.4391 17.3359 29.6816 17.0932 29.6816 16.7939C29.6816 16.4944 29.4391 16.252 29.1396 16.252H29.1339Z" fill="black"/>
<circle cx="23.5" cy="9.5" r="9.5" fill="#00D9C0" fill-opacity="0.6"/>
<path d="M35.1251 25.9665C34.8259 25.9665 34.5831 26.2089 34.5831 26.5085V33.8194C34.5831 34.9356 33.6753 35.8437 32.5591 35.8437C31.4429 35.8437 30.5351 34.9356 30.5351 33.8194V21.7638C30.5351 20.05 29.1406 18.6558 27.4268 18.6558C25.713 18.6558 24.3188 20.05 24.3188 21.7638V25.4298C24.3188 26.546 23.4107 27.4538 22.2948 27.4538C21.1787 27.4538 20.2705 26.546 20.2705 25.4298V22.7244L23.0293 19.9653C23.4059 19.589 23.5326 19.0575 23.4135 18.575L30.0625 11.926C30.6342 11.3544 30.6342 10.424 30.0625 9.85234L22.9415 2.73163H27.8234C28.1229 2.73163 28.3654 2.48886 28.3654 2.18964C28.3654 1.89013 28.1229 1.64764 27.8234 1.64764H21.8576L20.5667 0.356459C19.9947 -0.215174 19.0646 -0.215174 18.493 0.356459L11.8445 7.00462C11.7299 6.97639 11.6116 6.96002 11.4902 6.96002C11.0987 6.96002 10.7303 7.11246 10.4534 7.38938L7.57774 10.2653C7.0061 10.837 7.0061 11.7671 7.57774 12.3387L11.3914 16.1527C9.71692 17.7883 7.75191 19.2754 5.5447 20.5748C4.90278 20.9527 4.29078 21.4309 3.72536 21.9961C2.70573 23.016 1.96219 24.2019 1.63191 25.3356C1.26917 26.5816 1.43882 27.6376 2.1101 28.3089C2.55781 28.7566 3.17235 28.9757 3.88202 28.9757C4.92084 28.9754 6.16291 28.5056 7.38042 27.597C7.62008 27.4177 7.66948 27.0781 7.49051 26.8385C7.31126 26.5985 6.97167 26.5491 6.732 26.7284C5.18253 27.8846 3.56135 28.227 2.87652 27.5425C2.50333 27.169 2.42909 26.4754 2.6727 25.6387C2.95273 24.6773 3.59889 23.6559 4.49205 22.7628C4.99255 22.2623 5.53172 21.8403 6.0946 21.5091C8.38113 20.1629 10.419 18.6194 12.1579 16.9194L13.4996 18.2609C11.7994 20 10.2561 22.0379 8.90985 24.3244C8.74161 24.6101 8.54373 24.8977 8.32128 25.1792C8.13582 25.414 8.17591 25.755 8.41077 25.9405C8.51013 26.019 8.6287 26.0571 8.74641 26.0571C8.90647 26.0571 9.06511 25.9865 9.1721 25.851C9.42503 25.5309 9.65114 25.2023 9.84395 24.8743C11.1436 22.6668 12.6307 20.7018 14.2663 19.0273L18.08 22.841C18.3569 23.1182 18.725 23.2706 19.1168 23.2706C19.1402 23.2706 19.1634 23.2684 19.1865 23.2672V25.4298C19.1865 27.1436 20.581 28.5378 22.2948 28.5378C24.0086 28.5378 25.4028 27.1436 25.4028 25.4298V21.7638C25.4028 20.6479 26.3109 19.7398 27.4271 19.7398C28.543 19.7398 29.4511 20.6476 29.4511 21.7638V33.8194C29.4511 35.5335 30.8453 36.9277 32.5591 36.9277C34.2731 36.9277 35.6674 35.5335 35.6674 33.8194V26.5085C35.6671 26.2089 35.4246 25.9665 35.1251 25.9665ZM19.2594 1.12287C19.4084 0.973823 19.6509 0.973823 19.8 1.12287L29.2958 10.619C29.4449 10.7678 29.4449 11.0106 29.2958 11.1593L22.7964 17.6587L20.2612 15.1235L21.3593 14.0254C21.571 13.8134 21.571 13.4704 21.3593 13.2587C21.1476 13.0473 20.8043 13.0473 20.5929 13.2587L19.4945 14.3568L15.656 10.5183L16.7544 9.42016C16.9661 9.20872 16.9661 8.86546 16.7544 8.65375C16.5426 8.44231 16.1994 8.44203 15.9879 8.65375L14.8896 9.75185L14.3055 9.16779L18.6279 4.8454C18.8396 4.6334 18.8396 4.29042 18.6279 4.07871C18.4162 3.86699 18.0729 3.86699 17.8615 4.07871L13.5388 8.4011L12.76 7.62227L19.2594 1.12287ZM18.8467 22.0746L8.34415 11.5723C8.1951 11.4233 8.1951 11.1808 8.34415 11.0317L11.2201 8.15607C11.2924 8.08381 11.3883 8.04401 11.4902 8.04401C11.5924 8.04401 11.6884 8.08381 11.7607 8.15607L22.2629 18.6583C22.412 18.8074 22.412 19.0498 22.2629 19.1989L19.3873 22.0746C19.315 22.1468 19.219 22.1866 19.1168 22.1866C19.0146 22.1866 18.9189 22.1468 18.8467 22.0746Z" fill="black"/>
</g>
<defs>
<clipPath id="clip0">
<rect width="37" height="37" fill="white"/>
</clipPath>
</defs>
</svg>
