<svg width="38" height="38" viewBox="0 0 38 38" fill="none" xmlns="http://www.w3.org/2000/svg">
<circle cx="29" cy="18" r="9" fill="#00D9C0" fill-opacity="0.6"/>
<path d="M33.8835 9.5H28.8168V1.9C28.8168 0.82321 27.9936 0 26.9168 0H4.1168C3.04001 0 2.2168 0.82321 2.2168 1.9V36.1C2.2168 37.1768 3.04001 38 4.1168 38H23.3701L28.8168 32.5533V28.5H27.5501V31.6667H24.3835C23.3067 31.6667 22.4835 32.4899 22.4835 33.5667V36.7333H4.1168C3.73673 36.7333 3.48346 36.4801 3.48346 36.1V1.9C3.48346 1.51994 3.73673 1.26667 4.1168 1.26667H26.9168C27.2969 1.26667 27.5501 1.51994 27.5501 1.9V9.5H22.4835C21.4067 9.5 20.5835 10.3232 20.5835 11.4V22.8C20.5835 23.8768 21.4067 24.7 22.4835 24.7H26.0302L28.1835 26.8533L30.3367 24.7H33.8835C34.9603 24.7 35.7835 23.8768 35.7835 22.8V11.4C35.7835 10.3232 34.9603 9.5 33.8835 9.5ZM24.3835 32.9333H26.6635L23.7501 35.8467V33.5667C23.7501 33.1866 24.0034 32.9333 24.3835 32.9333ZM34.5168 22.8C34.5168 23.1801 34.2635 23.4333 33.8835 23.4333H29.8302L28.1835 25.0801L26.5367 23.4333H22.4835C22.1034 23.4333 21.8501 23.1801 21.8501 22.8V11.4C21.8501 11.0199 22.1034 10.7667 22.4835 10.7667H33.8835C34.2635 10.7667 34.5168 11.0199 34.5168 11.4V22.8Z" fill="black"/>
<path d="M11.7168 3.16602H19.3168V4.43268H11.7168V3.16602Z" fill="black"/>
<path d="M5.38379 6.33398H7.28379V7.60065H5.38379V6.33398Z" fill="black"/>
<path d="M8.5498 6.33398H25.6498V7.60065H8.5498V6.33398Z" fill="black"/>
<path d="M5.38379 10.1328H7.28379V11.3995H5.38379V10.1328Z" fill="black"/>
<path d="M8.5498 10.1328H18.6831V11.3995H8.5498V10.1328Z" fill="black"/>
<path d="M5.38379 13.9336H7.28379V15.2003H5.38379V13.9336Z" fill="black"/>
<path d="M8.5498 13.9336H18.6831V15.2003H8.5498V13.9336Z" fill="black"/>
<path d="M5.38379 17.7324H7.28379V18.9991H5.38379V17.7324Z" fill="black"/>
<path d="M8.5498 17.7324H18.6831V18.9991H8.5498V17.7324Z" fill="black"/>
<path d="M5.38379 21.5332H7.28379V22.7999H5.38379V21.5332Z" fill="black"/>
<path d="M8.5498 21.5332H18.6831V22.7999H8.5498V21.5332Z" fill="black"/>
<path d="M5.38379 25.334H7.28379V26.6007H5.38379V25.334Z" fill="black"/>
<path d="M8.5498 25.334H18.6831V26.6007H8.5498V25.334Z" fill="black"/>
<path d="M5.38379 29.1328H7.28379V30.3995H5.38379V29.1328Z" fill="black"/>
<path d="M8.5498 29.1328H25.6498V30.3995H8.5498V29.1328Z" fill="black"/>
<path d="M5.38379 32.9336H7.28379V34.2003H5.38379V32.9336Z" fill="black"/>
<path d="M8.5498 32.9336H20.5831V34.2003H8.5498V32.9336Z" fill="black"/>
<path d="M30.7171 15.96V14.5665C30.7171 13.1731 29.5772 12.0332 28.1838 12.0332C26.7903 12.0332 25.6505 13.1731 25.6505 14.5665H26.9171C26.9171 13.8698 27.4871 13.2999 28.1838 13.2999C28.8805 13.2999 29.4505 13.8698 29.4505 14.5665V15.8332H26.2838C25.207 15.8332 24.3838 16.6564 24.3838 17.7332V20.2665C24.3838 21.3433 25.207 22.1665 26.2838 22.1665H30.0838C31.1606 22.1665 31.9838 21.3433 31.9838 20.2665V17.7332C31.9838 16.91 31.4772 16.2133 30.7171 15.96ZM30.7171 20.2665C30.7171 20.6466 30.4638 20.8999 30.0838 20.8999H26.2838C25.9037 20.8999 25.6505 20.6466 25.6505 20.2665V17.7332C25.6505 17.3531 25.9037 17.0999 26.2838 17.0999H30.0838C30.4638 17.0999 30.7171 17.3531 30.7171 17.7332V20.2665Z" fill="black"/>
</svg>
